<?xml version="1.0" encoding="utf-8"?>
<!-- Generator: Adobe Illustrator 16.0.0, SVG Export Plug-In . SVG Version: 6.00 Build 0)  -->
<!DOCTYPE svg PUBLIC "-//W3C//DTD SVG 1.1//EN" "http://www.w3.org/Graphics/SVG/1.1/DTD/svg11.dtd">
<svg version="1.1" id="Capa_1" xmlns="http://www.w3.org/2000/svg" xmlns:xlink="http://www.w3.org/1999/xlink" x="0px" y="0px"
	 width="849.999px" height="92px" viewBox="0 0 849.999 92" enable-background="new 0 0 849.999 92" xml:space="preserve">
<g>
	<rect x="667.051" y="46" fill="#BBBBBB" width="0.995" height="46"/>
</g>
<g>
	<rect x="667.051" y="44" fill="#BBBBBB" width="0.995" height="1"/>
</g>
<g>
	<rect x="667.051" y="42" fill="#BBBBBB" width="0.995" height="1"/>
</g>
<g>
	<rect x="667.051" y="40" fill="#BBBBBB" width="0.995" height="1"/>
</g>
<g>
	<rect x="667.051" y="38" fill="#BBBBBB" width="0.995" height="1"/>
</g>
<g>
	<rect x="667.051" y="36" fill="#BBBBBB" width="0.995" height="1"/>
</g>
<g>
	<rect x="667.051" y="34" fill="#BBBBBB" width="0.995" height="1"/>
</g>
<g>
	<rect x="667.051" y="32" fill="#BBBBBB" width="0.995" height="1"/>
</g>
<g>
	<rect x="667.051" y="30" fill="#BBBBBB" width="0.995" height="1"/>
</g>
<g>
	<rect x="667.051" y="28" fill="#BBBBBB" width="0.995" height="1"/>
</g>
<g>
	<rect x="623.04" y="42" fill="#BBBBBB" width="0.995" height="50"/>
</g>
<g>
	<rect x="623.04" y="40" fill="#BBBBBB" width="0.995" height="1"/>
</g>
<g>
	<rect x="623.04" y="38" fill="#BBBBBB" width="0.995" height="1"/>
</g>
<g>
	<rect x="623.04" y="36" fill="#BBBBBB" width="0.995" height="1"/>
</g>
<g>
	<rect x="623.04" y="34" fill="#BBBBBB" width="0.995" height="1"/>
</g>
<g>
	<rect x="623.04" y="32" fill="#BBBBBB" width="0.995" height="1"/>
</g>
<g>
	<rect x="623.04" y="30" fill="#BBBBBB" width="0.995" height="1"/>
</g>
<g>
	<rect x="623.04" y="28" fill="#BBBBBB" width="0.995" height="1"/>
</g>
<g>
	<rect x="623.04" y="26" fill="#BBBBBB" width="0.995" height="1"/>
</g>
<g>
	<rect x="623.04" y="24" fill="#BBBBBB" width="0.995" height="1"/>
</g>
<g>
	<rect x="623.04" y="22" fill="#BBBBBB" width="0.995" height="1"/>
</g>
<g>
	<rect x="623.04" y="20" fill="#BBBBBB" width="0.995" height="1"/>
</g>
<g>
	<rect x="623.04" y="18" fill="#BBBBBB" width="0.995" height="1"/>
</g>
<g>
	<rect x="623.04" y="16" fill="#BBBBBB" width="0.995" height="1"/>
</g>
<g>
	<rect x="623.04" y="14" fill="#BBBBBB" width="0.995" height="1"/>
</g>
<g>
	<rect x="623.04" y="12" fill="#BBBBBB" width="0.995" height="1"/>
</g>
<g>
	<rect x="623.04" y="10" fill="#BBBBBB" width="0.995" height="1"/>
</g>
<g>
	<rect x="623.04" y="8" fill="#BBBBBB" width="0.995" height="1"/>
</g>
<g>
	<rect x="623.04" y="6" fill="#BBBBBB" width="0.995" height="1"/>
</g>
<g>
	<rect x="623.04" y="4" fill="#BBBBBB" width="0.995" height="1"/>
</g>
<g>
	<rect x="623.04" y="2" fill="#BBBBBB" width="0.995" height="1"/>
</g>
<g>
	<rect x="623.04" fill="#BBBBBB" width="0.995" height="1"/>
</g>
<g>
	<rect x="577.035" y="36" fill="#BBBBBB" width="0.995" height="56"/>
</g>
<g>
	<rect x="577.035" y="34" fill="#BBBBBB" width="0.995" height="1"/>
</g>
<g>
	<rect x="577.035" y="32" fill="#BBBBBB" width="0.995" height="1"/>
</g>
<g>
	<rect x="577.035" y="30" fill="#BBBBBB" width="0.995" height="1"/>
</g>
<g>
	<rect x="577.035" y="28" fill="#BBBBBB" width="0.995" height="1"/>
</g>
<g>
	<rect x="577.035" y="26" fill="#BBBBBB" width="0.995" height="1"/>
</g>
<g>
	<rect x="577.035" y="24" fill="#BBBBBB" width="0.995" height="1"/>
</g>
<g>
	<rect x="577.035" y="22" fill="#BBBBBB" width="0.995" height="1"/>
</g>
<g>
	<rect x="577.035" y="20" fill="#BBBBBB" width="0.995" height="1"/>
</g>
<g>
	<rect x="577.035" y="18" fill="#BBBBBB" width="0.995" height="1"/>
</g>
<g>
	<rect x="577.035" y="16" fill="#BBBBBB" width="0.995" height="1"/>
</g>
<g>
	<rect x="577.035" y="14" fill="#BBBBBB" width="0.995" height="1"/>
</g>
<g>
	<rect x="577.035" y="12" fill="#BBBBBB" width="0.995" height="1"/>
</g>
<g>
	<rect x="577.035" y="10" fill="#BBBBBB" width="0.995" height="1"/>
</g>
<g>
	<rect x="531.066" y="44.124" fill="#BBBBBB" width="0.995" height="47.876"/>
</g>
<g>
	<rect x="531.066" y="42" fill="#BBBBBB" width="0.995" height="1"/>
</g>
<g>
	<rect x="531.066" y="40" fill="#BBBBBB" width="0.995" height="1"/>
</g>
<g>
	<rect x="531.066" y="38" fill="#BBBBBB" width="0.995" height="1"/>
</g>
<g>
	<rect x="531.066" y="36" fill="#BBBBBB" width="0.995" height="1"/>
</g>
<g>
	<rect x="531.066" y="34" fill="#BBBBBB" width="0.995" height="1"/>
</g>
<g>
	<rect x="531.066" y="32" fill="#BBBBBB" width="0.995" height="1"/>
</g>
<g>
	<rect x="531.066" y="30" fill="#BBBBBB" width="0.995" height="1"/>
</g>
<g>
	<rect x="531.066" y="28" fill="#BBBBBB" width="0.995" height="1"/>
</g>
<g>
	<rect x="531.066" y="26" fill="#BBBBBB" width="0.995" height="1"/>
</g>
<g>
	<rect x="531.066" y="24" fill="#BBBBBB" width="0.995" height="1"/>
</g>
<g>
	<rect x="531.066" y="22" fill="#BBBBBB" width="0.995" height="1"/>
</g>
<g>
	<rect x="531.066" y="20" fill="#BBBBBB" width="0.995" height="1"/>
</g>
<g>
	<rect x="531.066" y="18" fill="#BBBBBB" width="0.995" height="1"/>
</g>
<g>
	<rect x="531.066" y="16" fill="#BBBBBB" width="0.995" height="1"/>
</g>
<g>
	<rect x="531.066" y="14" fill="#BBBBBB" width="0.995" height="1"/>
</g>
<g>
	<rect x="531.066" y="12" fill="#BBBBBB" width="0.995" height="1"/>
</g>
<g>
	<rect x="531.066" y="10" fill="#BBBBBB" width="0.995" height="1"/>
</g>
<g>
	<rect x="531.066" y="8" fill="#BBBBBB" width="0.995" height="1"/>
</g>
<g>
	<rect x="531.066" y="6" fill="#BBBBBB" width="0.995" height="1"/>
</g>
<g>
	<rect x="531.066" y="4" fill="#BBBBBB" width="0.995" height="1"/>
</g>
<g>
	<rect x="531.066" y="2" fill="#BBBBBB" width="0.995" height="1"/>
</g>
<g>
	<rect x="487.107" y="52" fill="#BBBBBB" width="0.995" height="40"/>
</g>
<g>
	<rect x="487.107" y="50" fill="#BBBBBB" width="0.995" height="1"/>
</g>
<g>
	<rect x="487.107" y="48" fill="#BBBBBB" width="0.995" height="1"/>
</g>
<g>
	<rect x="485.117" y="46" fill="#BBBBBB" width="0.995" height="1"/>
</g>
<g>
	<rect x="487.107" y="44" fill="#BBBBBB" width="0.995" height="1"/>
</g>
<g>
	<rect x="487.107" y="42" fill="#BBBBBB" width="0.995" height="1"/>
</g>
<g>
	<rect x="487.107" y="40" fill="#BBBBBB" width="0.995" height="1"/>
</g>
<g>
	<rect x="487.107" y="38" fill="#BBBBBB" width="0.995" height="1"/>
</g>
<g>
	<rect x="487.107" y="36" fill="#BBBBBB" width="0.995" height="1"/>
</g>
<g>
	<rect x="487.107" y="34" fill="#BBBBBB" width="0.995" height="1"/>
</g>
<g>
	<rect x="487.107" y="32" fill="#BBBBBB" width="0.995" height="1"/>
</g>
<g>
	<rect x="487.107" y="30" fill="#BBBBBB" width="0.995" height="1"/>
</g>
<g>
	<rect x="441.131" y="58" fill="#BBBBBB" width="0.995" height="34"/>
</g>
<g>
	<rect x="441.131" y="56" fill="#BBBBBB" width="0.995" height="1"/>
</g>
<g>
	<rect x="441.131" y="54" fill="#BBBBBB" width="0.995" height="1"/>
</g>
<g>
	<rect x="441.131" y="52" fill="#BBBBBB" width="0.995" height="1"/>
</g>
<g>
	<rect x="441.131" y="50" fill="#BBBBBB" width="0.995" height="1"/>
</g>
<g>
	<rect x="441.131" y="48" fill="#BBBBBB" width="0.995" height="1"/>
</g>
<g>
	<rect x="441.131" y="46" fill="#BBBBBB" width="0.995" height="1"/>
</g>
<g>
	<rect x="441.131" y="44" fill="#BBBBBB" width="0.995" height="1"/>
</g>
<g>
	<rect x="441.131" y="42" fill="#BBBBBB" width="0.995" height="1"/>
</g>
<g>
	<rect x="441.131" y="40" fill="#BBBBBB" width="0.995" height="1"/>
</g>
<g>
	<rect x="441.131" y="38" fill="#BBBBBB" width="0.995" height="1"/>
</g>
<g>
	<rect x="441.131" y="36" fill="#BBBBBB" width="0.995" height="1"/>
</g>
<g>
	<rect x="441.131" y="34" fill="#BBBBBB" width="0.995" height="1"/>
</g>
<g>
	<rect x="441.131" y="32" fill="#BBBBBB" width="0.995" height="1"/>
</g>
<g>
	<rect x="441.131" y="30" fill="#BBBBBB" width="0.995" height="1"/>
</g>
<g>
	<rect x="441.131" y="28" fill="#BBBBBB" width="0.995" height="1"/>
</g>
<g>
	<rect x="441.131" y="26" fill="#BBBBBB" width="0.995" height="1"/>
</g>
<g>
	<rect x="441.131" y="24" fill="#BBBBBB" width="0.995" height="1"/>
</g>
<g>
	<rect x="441.131" y="22" fill="#BBBBBB" width="0.995" height="1"/>
</g>
<g>
	<rect x="441.131" y="20" fill="#BBBBBB" width="0.995" height="1"/>
</g>
<g>
	<rect x="441.131" y="18" fill="#BBBBBB" width="0.995" height="1"/>
</g>
<g>
	<rect x="441.131" y="16" fill="#BBBBBB" width="0.995" height="1"/>
</g>
<g>
	<rect x="441.131" y="14" fill="#BBBBBB" width="0.995" height="1"/>
</g>
<g>
	<rect x="441.131" y="12" fill="#BBBBBB" width="0.995" height="1"/>
</g>
<g>
	<rect x="441.131" y="10" fill="#BBBBBB" width="0.995" height="1"/>
</g>
<g>
	<rect x="441.131" y="8" fill="#BBBBBB" width="0.995" height="1"/>
</g>
<g>
	<rect x="441.131" y="6" fill="#BBBBBB" width="0.995" height="1"/>
</g>
<g>
	<rect x="395.148" y="46" fill="#BBBBBB" width="0.995" height="46"/>
</g>
<g>
	<rect x="395.148" y="44" fill="#BBBBBB" width="0.995" height="1"/>
</g>
<g>
	<rect x="395.148" y="42" fill="#BBBBBB" width="0.995" height="1"/>
</g>
<g>
	<rect x="395.148" y="40" fill="#BBBBBB" width="0.995" height="1"/>
</g>
<g>
	<rect x="395.148" y="38" fill="#BBBBBB" width="0.995" height="1"/>
</g>
<g>
	<rect x="395.148" y="36" fill="#BBBBBB" width="0.995" height="1"/>
</g>
<g>
	<rect x="395.148" y="34" fill="#BBBBBB" width="0.995" height="1"/>
</g>
<g>
	<rect x="395.148" y="32" fill="#BBBBBB" width="0.995" height="1"/>
</g>
<g>
	<rect x="395.148" y="30" fill="#BBBBBB" width="0.995" height="1"/>
</g>
<g>
	<rect x="395.148" y="28" fill="#BBBBBB" width="0.995" height="1"/>
</g>
<g>
	<rect x="395.148" y="26" fill="#BBBBBB" width="0.995" height="1"/>
</g>
<g>
	<rect x="395.148" y="24" fill="#BBBBBB" width="0.995" height="1"/>
</g>
<g>
	<rect x="395.148" y="22" fill="#BBBBBB" width="0.995" height="1"/>
</g>
<g>
	<rect x="395.148" y="20" fill="#BBBBBB" width="0.995" height="1"/>
</g>
<g>
	<rect x="395.148" y="18" fill="#BBBBBB" width="0.995" height="1"/>
</g>
<g>
	<rect x="351.191" y="30" fill="#BBBBBB" width="0.995" height="62"/>
</g>
<g>
	<rect x="351.191" y="28" fill="#BBBBBB" width="0.995" height="1"/>
</g>
<g>
	<rect x="351.191" y="26" fill="#BBBBBB" width="0.995" height="1"/>
</g>
<g>
	<rect x="351.191" y="24" fill="#BBBBBB" width="0.995" height="1"/>
</g>
<g>
	<rect x="351.191" y="22" fill="#BBBBBB" width="0.995" height="1"/>
</g>
<g>
	<rect x="351.191" y="20" fill="#BBBBBB" width="0.995" height="1"/>
</g>
<g>
	<rect x="351.191" y="18" fill="#BBBBBB" width="0.995" height="1"/>
</g>
<g>
	<rect x="351.191" y="16" fill="#BBBBBB" width="0.995" height="1"/>
</g>
<g>
	<rect x="351.191" y="14" fill="#BBBBBB" width="0.995" height="1"/>
</g>
<g>
	<rect x="351.191" y="12" fill="#BBBBBB" width="0.995" height="1"/>
</g>
<g>
	<rect x="351.191" y="10" fill="#BBBBBB" width="0.995" height="1"/>
</g>
<g>
	<rect x="351.191" y="8" fill="#BBBBBB" width="0.995" height="1"/>
</g>
<g>
	<rect x="351.191" y="6" fill="#BBBBBB" width="0.995" height="1"/>
</g>
<g>
	<rect x="351.191" y="4" fill="#BBBBBB" width="0.995" height="1"/>
</g>
<g>
	<rect x="305.232" y="42" fill="#BBBBBB" width="0.995" height="50"/>
</g>
<g>
	<rect x="305.232" y="40" fill="#BBBBBB" width="0.995" height="1"/>
</g>
<g>
	<rect x="305.232" y="38" fill="#BBBBBB" width="0.995" height="1"/>
</g>
<g>
	<rect x="305.232" y="36" fill="#BBBBBB" width="0.995" height="1"/>
</g>
<g>
	<rect x="305.232" y="34" fill="#BBBBBB" width="0.995" height="1"/>
</g>
<g>
	<rect x="305.232" y="32" fill="#BBBBBB" width="0.995" height="1"/>
</g>
<g>
	<rect x="305.232" y="30" fill="#BBBBBB" width="0.995" height="1"/>
</g>
<g>
	<rect x="305.232" y="28" fill="#BBBBBB" width="0.995" height="1"/>
</g>
<g>
	<rect x="305.232" y="26" fill="#BBBBBB" width="0.995" height="1"/>
</g>
<g>
	<rect x="305.232" y="24" fill="#BBBBBB" width="0.995" height="1"/>
</g>
<g>
	<rect x="305.232" y="22" fill="#BBBBBB" width="0.995" height="1"/>
</g>
<g>
	<rect x="305.232" y="20" fill="#BBBBBB" width="0.995" height="1"/>
</g>
<g>
	<rect x="305.232" y="18" fill="#BBBBBB" width="0.995" height="1"/>
</g>
<g>
	<rect x="305.232" y="16" fill="#BBBBBB" width="0.995" height="1"/>
</g>
<g>
	<rect x="305.232" y="14" fill="#BBBBBB" width="0.995" height="1"/>
</g>
<g>
	<rect x="305.232" y="12" fill="#BBBBBB" width="0.995" height="1"/>
</g>
<g>
	<rect x="259.289" y="48" fill="#BBBBBB" width="0.995" height="44"/>
</g>
<g>
	<rect x="259.289" y="44" fill="#BBBBBB" width="0.995" height="1"/>
</g>
<g>
	<rect x="259.289" y="42" fill="#BBBBBB" width="0.995" height="1"/>
</g>
<g>
	<rect x="259.289" y="40" fill="#BBBBBB" width="0.995" height="1"/>
</g>
<g>
	<rect x="259.289" y="38" fill="#BBBBBB" width="0.995" height="1"/>
</g>
<g>
	<rect x="259.289" y="36" fill="#BBBBBB" width="0.995" height="1"/>
</g>
<g>
	<rect x="259.289" y="34" fill="#BBBBBB" width="0.995" height="1"/>
</g>
<g>
	<rect x="259.289" y="32" fill="#BBBBBB" width="0.995" height="1"/>
</g>
<g>
	<rect x="259.289" y="30" fill="#BBBBBB" width="0.995" height="1"/>
</g>
<g>
	<rect x="259.289" y="28" fill="#BBBBBB" width="0.995" height="1"/>
</g>
<g>
	<rect x="259.289" y="26" fill="#BBBBBB" width="0.995" height="1"/>
</g>
<g>
	<rect x="259.289" y="24" fill="#BBBBBB" width="0.995" height="1"/>
</g>
<g>
	<rect x="259.289" y="22" fill="#BBBBBB" width="0.995" height="1"/>
</g>
<g>
	<rect x="259.289" y="20" fill="#BBBBBB" width="0.995" height="1"/>
</g>
<g>
	<rect x="259.289" y="18" fill="#BBBBBB" width="0.995" height="1"/>
</g>
<g>
	<rect x="259.289" y="16" fill="#BBBBBB" width="0.995" height="1"/>
</g>
<g>
	<rect x="259.289" y="14" fill="#BBBBBB" width="0.995" height="1"/>
</g>
<g>
	<rect x="259.289" y="12" fill="#BBBBBB" width="0.995" height="1"/>
</g>
<g>
	<rect x="259.289" y="10" fill="#BBBBBB" width="0.995" height="1"/>
</g>
<g>
	<rect x="259.289" y="8" fill="#BBBBBB" width="0.995" height="1"/>
</g>
<g>
	<rect x="259.289" y="6" fill="#BBBBBB" width="0.995" height="1"/>
</g>
<g>
	<rect x="259.289" y="4" fill="#BBBBBB" width="0.995" height="1"/>
</g>
<g>
	<rect x="259.289" y="2" fill="#BBBBBB" width="0.995" height="1"/>
</g>
<g>
	<rect x="259.289" fill="#BBBBBB" width="0.995" height="1"/>
</g>
<g>
	<rect x="213.332" y="52" fill="#BBBBBB" width="0.995" height="40"/>
</g>
<g>
	<rect x="213.332" y="50" fill="#BBBBBB" width="0.995" height="1"/>
</g>
<g>
	<rect x="213.332" y="48" fill="#BBBBBB" width="0.995" height="1"/>
</g>
<g>
	<rect x="213.332" y="46" fill="#BBBBBB" width="0.995" height="1"/>
</g>
<g>
	<rect x="213.332" y="44" fill="#BBBBBB" width="0.995" height="1"/>
</g>
<g>
	<rect x="213.332" y="42" fill="#BBBBBB" width="0.995" height="1"/>
</g>
<g>
	<rect x="213.332" y="40" fill="#BBBBBB" width="0.995" height="1"/>
</g>
<g>
	<rect x="213.332" y="38" fill="#BBBBBB" width="0.995" height="1"/>
</g>
<g>
	<rect x="213.332" y="36" fill="#BBBBBB" width="0.995" height="1"/>
</g>
<g>
	<rect x="213.332" y="34" fill="#BBBBBB" width="0.995" height="1"/>
</g>
<g>
	<rect x="213.332" y="32" fill="#BBBBBB" width="0.995" height="1"/>
</g>
<g>
	<rect x="213.332" y="30" fill="#BBBBBB" width="0.995" height="1"/>
</g>
<g>
	<rect x="169.352" y="62" fill="#BBBBBB" width="0.995" height="30"/>
</g>
<g>
	<rect x="169.352" y="38" fill="#BBBBBB" width="0.995" height="1"/>
</g>
<g>
	<rect x="169.352" y="36" fill="#BBBBBB" width="0.995" height="1"/>
</g>
<g>
	<rect x="169.352" y="34" fill="#BBBBBB" width="0.995" height="1"/>
</g>
<g>
	<rect x="169.352" y="44" fill="#BBBBBB" width="0.995" height="1"/>
</g>
<g>
	<rect x="169.352" y="42" fill="#BBBBBB" width="0.995" height="1"/>
</g>
<g>
	<rect x="169.352" y="40" fill="#BBBBBB" width="0.995" height="1"/>
</g>
<g>
	<rect x="169.352" y="32" fill="#BBBBBB" width="0.995" height="1"/>
</g>
<g>
	<rect x="169.352" y="30" fill="#BBBBBB" width="0.995" height="1"/>
</g>
<g>
	<rect x="169.352" y="28" fill="#BBBBBB" width="0.995" height="1"/>
</g>
<g>
	<rect x="169.352" y="26" fill="#BBBBBB" width="0.995" height="1"/>
</g>
<g>
	<rect x="169.352" y="24" fill="#BBBBBB" width="0.995" height="1"/>
</g>
<g>
	<rect x="169.352" y="22" fill="#BBBBBB" width="0.995" height="1"/>
</g>
<g>
	<rect x="169.352" y="20" fill="#BBBBBB" width="0.995" height="1"/>
</g>
<g>
	<rect x="169.352" y="18" fill="#BBBBBB" width="0.995" height="1"/>
</g>
<g>
	<rect x="169.352" y="16" fill="#BBBBBB" width="0.995" height="1"/>
</g>
<g>
	<rect x="169.352" y="14" fill="#BBBBBB" width="0.995" height="1"/>
</g>
<g>
	<rect x="169.352" y="12" fill="#BBBBBB" width="0.995" height="1"/>
</g>
<g>
	<rect x="169.352" y="10" fill="#BBBBBB" width="0.995" height="1"/>
</g>
<g>
	<rect x="169.352" y="8" fill="#BBBBBB" width="0.995" height="1"/>
</g>
<g>
	<rect x="209.342" y="46" fill="#BBBBBB" width="0.995" height="1"/>
</g>
<g>
	<rect x="211.342" y="46" fill="#BBBBBB" width="0.995" height="1"/>
</g>
<g>
	<rect x="207.342" y="46" fill="#BBBBBB" width="0.995" height="1"/>
</g>
<g>
	<rect x="205.342" y="46" fill="#BBBBBB" width="0.995" height="1"/>
</g>
<g>
	<rect x="203.342" y="46" fill="#BBBBBB" width="0.995" height="1"/>
</g>
<g>
	<rect x="201.342" y="46" fill="#BBBBBB" width="0.995" height="1"/>
</g>
<g>
	<rect x="199.342" y="46" fill="#BBBBBB" width="0.995" height="1"/>
</g>
<g>
	<rect x="197.342" y="46" fill="#BBBBBB" width="0.995" height="1"/>
</g>
<g>
	<rect x="195.342" y="46" fill="#BBBBBB" width="0.995" height="1"/>
</g>
<g>
	<rect x="193.342" y="46" fill="#BBBBBB" width="0.995" height="1"/>
</g>
<g>
	<rect x="191.342" y="46" fill="#BBBBBB" width="0.995" height="1"/>
</g>
<g>
	<rect x="189.352" y="46" fill="#BBBBBB" width="0.995" height="1"/>
</g>
<g>
	<rect x="187.352" y="46" fill="#BBBBBB" width="0.995" height="1"/>
</g>
<g>
	<rect x="185.352" y="46" fill="#BBBBBB" width="0.995" height="1"/>
</g>
<g>
	<rect x="243.289" y="46" fill="#BBBBBB" width="0.995" height="1"/>
</g>
<g>
	<rect x="245.289" y="46" fill="#BBBBBB" width="0.995" height="1"/>
</g>
<g>
	<rect x="241.289" y="46" fill="#BBBBBB" width="0.995" height="1"/>
</g>
<g>
	<rect x="239.289" y="46" fill="#BBBBBB" width="0.995" height="1"/>
</g>
<g>
	<rect x="237.289" y="46" fill="#BBBBBB" width="0.995" height="1"/>
</g>
<g>
	<rect x="235.289" y="46" fill="#BBBBBB" width="0.995" height="1"/>
</g>
<g>
	<rect x="233.289" y="46" fill="#BBBBBB" width="0.995" height="1"/>
</g>
<g>
	<rect x="231.289" y="46" fill="#BBBBBB" width="0.995" height="1"/>
</g>
<g>
	<rect x="229.289" y="46" fill="#BBBBBB" width="0.995" height="1"/>
</g>
<g>
	<rect x="227.289" y="46" fill="#BBBBBB" width="0.995" height="1"/>
</g>
<g>
	<rect x="225.289" y="46" fill="#BBBBBB" width="0.995" height="1"/>
</g>
<g>
	<rect x="223.299" y="46" fill="#BBBBBB" width="0.995" height="1"/>
</g>
<g>
	<rect x="221.299" y="46" fill="#BBBBBB" width="0.995" height="1"/>
</g>
<g>
	<rect x="219.299" y="46" fill="#BBBBBB" width="0.995" height="1"/>
</g>
<g>
	<rect x="217.299" y="46" fill="#BBBBBB" width="0.995" height="1"/>
</g>
<g>
	<rect x="215.299" y="46" fill="#BBBBBB" width="0.995" height="1"/>
</g>
<g>
	<rect x="261.289" y="46" fill="#BBBBBB" width="0.995" height="1"/>
</g>
<g>
	<rect x="269.289" y="46" fill="#BBBBBB" width="0.995" height="1"/>
</g>
<g>
	<rect x="271.289" y="46" fill="#BBBBBB" width="0.995" height="1"/>
</g>
<g>
	<rect x="267.289" y="46" fill="#BBBBBB" width="0.995" height="1"/>
</g>
<g>
	<rect x="265.289" y="46" fill="#BBBBBB" width="0.995" height="1"/>
</g>
<g>
	<rect x="263.289" y="46" fill="#BBBBBB" width="0.995" height="1"/>
</g>
<g>
	<rect x="279.289" y="46" fill="#BBBBBB" width="0.995" height="1"/>
</g>
<g>
	<rect x="281.289" y="46" fill="#BBBBBB" width="0.995" height="1"/>
</g>
<g>
	<rect x="277.289" y="46" fill="#BBBBBB" width="0.995" height="1"/>
</g>
<g>
	<rect x="275.289" y="46" fill="#BBBBBB" width="0.995" height="1"/>
</g>
<g>
	<rect x="273.289" y="46" fill="#BBBBBB" width="0.995" height="1"/>
</g>
<g>
	<rect x="289.289" y="46" fill="#BBBBBB" width="0.995" height="1"/>
</g>
<g>
	<rect x="291.289" y="46" fill="#BBBBBB" width="0.995" height="1"/>
</g>
<g>
	<rect x="287.289" y="46" fill="#BBBBBB" width="0.995" height="1"/>
</g>
<g>
	<rect x="285.289" y="46" fill="#BBBBBB" width="0.995" height="1"/>
</g>
<g>
	<rect x="283.289" y="46" fill="#BBBBBB" width="0.995" height="1"/>
</g>
<g>
	<rect x="299.279" y="46" fill="#BBBBBB" width="0.995" height="1"/>
</g>
<g>
	<rect x="297.279" y="46" fill="#BBBBBB" width="0.995" height="1"/>
</g>
<g>
	<rect x="295.279" y="46" fill="#BBBBBB" width="0.995" height="1"/>
</g>
<g>
	<rect x="293.279" y="46" fill="#BBBBBB" width="0.995" height="1"/>
</g>
<g>
	<rect x="381.158" y="46" fill="#BBBBBB" width="0.995" height="1"/>
</g>
<g>
	<rect x="301.279" y="46" fill="#BBBBBB" width="56.879" height="1"/>
</g>
<g>
	<rect x="389.158" y="46" fill="#BBBBBB" width="0.995" height="1"/>
</g>
<g>
	<rect x="391.158" y="46" fill="#BBBBBB" width="0.995" height="1"/>
</g>
<g>
	<rect x="393.158" y="46" fill="#BBBBBB" width="0.995" height="1"/>
</g>
<g>
	<rect x="387.158" y="46" fill="#BBBBBB" width="0.995" height="1"/>
</g>
<g>
	<rect x="385.158" y="46" fill="#BBBBBB" width="0.995" height="1"/>
</g>
<g>
	<rect x="383.158" y="46" fill="#BBBBBB" width="0.995" height="1"/>
</g>
<g>
	<rect x="367.158" y="46" fill="#BBBBBB" width="0.995" height="1"/>
</g>
<g>
	<rect x="375.158" y="46" fill="#BBBBBB" width="0.995" height="1"/>
</g>
<g>
	<rect x="377.158" y="46" fill="#BBBBBB" width="0.995" height="1"/>
</g>
<g>
	<rect x="379.158" y="46" fill="#BBBBBB" width="0.995" height="1"/>
</g>
<g>
	<rect x="373.158" y="46" fill="#BBBBBB" width="0.995" height="1"/>
</g>
<g>
	<rect x="371.158" y="46" fill="#BBBBBB" width="0.995" height="1"/>
</g>
<g>
	<rect x="369.158" y="46" fill="#BBBBBB" width="0.995" height="1"/>
</g>
<g>
	<rect x="363.163" y="46" fill="#BBBBBB" width="0.995" height="1"/>
</g>
<g>
	<rect x="365.163" y="46" fill="#BBBBBB" width="0.995" height="1"/>
</g>
<g>
	<rect x="361.163" y="46" fill="#BBBBBB" width="0.995" height="1"/>
</g>
<g>
	<rect x="359.163" y="46" fill="#BBBBBB" width="0.995" height="1"/>
</g>
<g>
	<rect x="411.146" y="46" fill="#BBBBBB" width="0.995" height="1"/>
</g>
<g>
	<rect x="413.146" y="46" fill="#BBBBBB" width="0.995" height="1"/>
</g>
<g>
	<rect x="421.146" y="46" fill="#BBBBBB" width="0.995" height="1"/>
</g>
<g>
	<rect x="423.146" y="46" fill="#BBBBBB" width="0.995" height="1"/>
</g>
<g>
	<rect x="419.146" y="46" fill="#BBBBBB" width="0.995" height="1"/>
</g>
<g>
	<rect x="417.146" y="46" fill="#BBBBBB" width="0.995" height="1"/>
</g>
<g>
	<rect x="415.146" y="46" fill="#BBBBBB" width="0.995" height="1"/>
</g>
<g>
	<rect x="397.139" y="46" fill="#BBBBBB" width="0.995" height="1"/>
</g>
<g>
	<rect x="399.139" y="46" fill="#BBBBBB" width="0.995" height="1"/>
</g>
<g>
	<rect x="401.139" y="46" fill="#BBBBBB" width="0.995" height="1"/>
</g>
<g>
	<rect x="403.129" y="46" fill="#BBBBBB" width="0.995" height="1"/>
</g>
<g>
	<rect x="405.129" y="46" fill="#BBBBBB" width="0.995" height="1"/>
</g>
<g>
	<rect x="407.129" y="46" fill="#BBBBBB" width="0.995" height="1"/>
</g>
<g>
	<rect x="409.129" y="46" fill="#BBBBBB" width="0.995" height="1"/>
</g>
<g>
	<rect x="427.141" y="46" fill="#BBBBBB" width="0.995" height="1"/>
</g>
<g>
	<rect x="429.141" y="46" fill="#BBBBBB" width="0.995" height="1"/>
</g>
<g>
	<rect x="425.141" y="46" fill="#BBBBBB" width="0.995" height="1"/>
</g>
<g>
	<rect x="437.141" y="46" fill="#BBBBBB" width="0.995" height="1"/>
</g>
<g>
	<rect x="439.141" y="46" fill="#BBBBBB" width="0.995" height="1"/>
</g>
<g>
	<rect x="435.141" y="46" fill="#BBBBBB" width="0.995" height="1"/>
</g>
<g>
	<rect x="433.141" y="46" fill="#BBBBBB" width="0.995" height="1"/>
</g>
<g>
	<rect x="431.141" y="46" fill="#BBBBBB" width="0.995" height="1"/>
</g>
<g>
	<rect x="443.128" y="46" fill="#BBBBBB" width="0.995" height="1"/>
</g>
<g>
	<rect x="445.128" y="46" fill="#BBBBBB" width="0.995" height="1"/>
</g>
<g>
	<rect x="453.128" y="46" fill="#BBBBBB" width="0.995" height="1"/>
</g>
<g>
	<rect x="455.128" y="46" fill="#BBBBBB" width="0.995" height="1"/>
</g>
<g>
	<rect x="451.128" y="46" fill="#BBBBBB" width="0.995" height="1"/>
</g>
<g>
	<rect x="449.128" y="46" fill="#BBBBBB" width="0.995" height="1"/>
</g>
<g>
	<rect x="447.128" y="46" fill="#BBBBBB" width="0.995" height="1"/>
</g>
<g>
	<rect x="459.124" y="46" fill="#BBBBBB" width="0.995" height="1"/>
</g>
<g>
	<rect x="461.124" y="46" fill="#BBBBBB" width="0.995" height="1"/>
</g>
<g>
	<rect x="457.124" y="46" fill="#BBBBBB" width="0.995" height="1"/>
</g>
<g>
	<rect x="463.121" y="46" fill="#BBBBBB" width="0.995" height="1"/>
</g>
<g>
	<rect x="465.121" y="46" fill="#BBBBBB" width="0.995" height="1"/>
</g>
<g>
	<rect x="473.121" y="46" fill="#BBBBBB" width="0.995" height="1"/>
</g>
<g>
	<rect x="471.121" y="46" fill="#BBBBBB" width="0.995" height="1"/>
</g>
<g>
	<rect x="469.121" y="46" fill="#BBBBBB" width="0.995" height="1"/>
</g>
<g>
	<rect x="467.121" y="46" fill="#BBBBBB" width="0.995" height="1"/>
</g>
<g>
	<rect x="489.098" y="46" fill="#BBBBBB" width="0.995" height="1"/>
</g>
<g>
	<rect x="491.098" y="46" fill="#BBBBBB" width="0.995" height="1"/>
</g>
<g>
	<rect x="499.098" y="46" fill="#BBBBBB" width="0.995" height="1"/>
</g>
<g>
	<rect x="501.098" y="46" fill="#BBBBBB" width="0.995" height="1"/>
</g>
<g>
	<rect x="497.098" y="46" fill="#BBBBBB" width="0.995" height="1"/>
</g>
<g>
	<rect x="495.098" y="46" fill="#BBBBBB" width="0.995" height="1"/>
</g>
<g>
	<rect x="493.098" y="46" fill="#BBBBBB" width="0.995" height="1"/>
</g>
<g>
	<rect x="505.093" y="46" fill="#BBBBBB" width="0.995" height="1"/>
</g>
<g>
	<rect x="507.093" y="46" fill="#BBBBBB" width="0.995" height="1"/>
</g>
<g>
	<rect x="503.093" y="46" fill="#BBBBBB" width="0.995" height="1"/>
</g>
<g>
	<rect x="509.098" y="46" fill="#BBBBBB" width="340.901" height="1"/>
</g>
<g>
	<rect x="475.117" y="46" fill="#BBBBBB" width="0.995" height="1"/>
</g>
<g>
	<rect x="483.117" y="46" fill="#BBBBBB" width="0.995" height="1"/>
</g>
<g>
	<rect x="487.107" y="46" fill="#BBBBBB" width="0.995" height="1"/>
</g>
<g>
	<rect x="481.117" y="46" fill="#BBBBBB" width="0.995" height="1"/>
</g>
<g>
	<rect x="479.117" y="46" fill="#BBBBBB" width="0.995" height="1"/>
</g>
<g>
	<rect x="477.117" y="46" fill="#BBBBBB" width="0.995" height="1"/>
</g>
<g>
	<rect x="257.289" y="46" fill="#BBBBBB" width="0.995" height="1"/>
</g>
<g>
	<rect x="259.289" y="46" fill="#BBBBBB" width="0.995" height="1"/>
</g>
<g>
	<rect x="255.289" y="46" fill="#BBBBBB" width="0.995" height="1"/>
</g>
<g>
	<rect x="253.289" y="46" fill="#BBBBBB" width="0.995" height="1"/>
</g>
<g>
	<rect x="251.299" y="46" fill="#BBBBBB" width="0.995" height="1"/>
</g>
<g>
	<rect x="249.299" y="46" fill="#BBBBBB" width="0.995" height="1"/>
</g>
<g>
	<rect x="247.299" y="46" fill="#BBBBBB" width="0.995" height="1"/>
</g>
<g>
	<rect x="183.352" y="46" fill="#BBBBBB" width="0.995" height="1"/>
</g>
<g>
	<rect x="181.352" y="46" fill="#BBBBBB" width="0.995" height="1"/>
</g>
<g>
	<rect x="179.352" y="46" fill="#BBBBBB" width="0.995" height="1"/>
</g>
<g>
	<rect x="177.352" y="46" fill="#BBBBBB" width="0.995" height="1"/>
</g>
<g>
	<rect x="169.352" y="46" fill="#BBBBBB" width="0.995" height="1"/>
</g>
<g>
	<rect x="169.352" y="48" fill="#BBBBBB" width="0.995" height="1"/>
</g>
<g>
	<rect x="169.352" y="50" fill="#BBBBBB" width="0.995" height="1"/>
</g>
<g>
	<rect x="169.352" y="56" fill="#BBBBBB" width="0.995" height="1"/>
</g>
<g>
	<rect x="169.352" y="54" fill="#BBBBBB" width="0.995" height="1"/>
</g>
<g>
	<rect x="169.352" y="52" fill="#BBBBBB" width="0.995" height="1"/>
</g>
<g>
	<rect x="169.352" y="58" fill="#BBBBBB" width="0.995" height="1"/>
</g>
<g>
	<rect x="169.352" y="60" fill="#BBBBBB" width="0.995" height="1"/>
</g>
<g>
	<rect x="171.352" y="46" fill="#BBBBBB" width="0.995" height="1"/>
</g>
<g>
	<rect x="173.352" y="46" fill="#BBBBBB" width="0.995" height="1"/>
</g>
<g>
	<rect x="175.352" y="46" fill="#BBBBBB" width="0.995" height="1"/>
</g>
<g>
	<rect x="167.342" y="46" fill="#BBBBBB" width="0.995" height="1"/>
</g>
<g>
	<rect x="165.342" y="46" fill="#BBBBBB" width="0.995" height="1"/>
</g>
<g>
	<rect x="163.342" y="46" fill="#BBBBBB" width="0.995" height="1"/>
</g>
<g>
	<rect x="161.342" y="46" fill="#BBBBBB" width="0.995" height="1"/>
</g>
<g>
	<rect x="159.342" y="46" fill="#BBBBBB" width="0.995" height="1"/>
</g>
<g>
	<rect x="157.342" y="46" fill="#BBBBBB" width="0.995" height="1"/>
</g>
<g>
	<rect x="155.342" y="46" fill="#BBBBBB" width="0.995" height="1"/>
</g>
<g>
	<rect x="153.342" y="46" fill="#BBBBBB" width="0.995" height="1"/>
</g>
<g>
	<rect x="151.342" y="46" fill="#BBBBBB" width="0.995" height="1"/>
</g>
<g>
	<rect x="149.342" y="46" fill="#BBBBBB" width="0.995" height="1"/>
</g>
<g>
	<rect x="147.352" y="46" fill="#BBBBBB" width="0.995" height="1"/>
</g>
<g>
	<rect x="145.352" y="46" fill="#BBBBBB" width="0.995" height="1"/>
</g>
<g>
	<rect x="143.352" y="46" fill="#BBBBBB" width="0.995" height="1"/>
</g>
<g>
	<rect x="141.352" y="46" fill="#BBBBBB" width="0.995" height="1"/>
</g>
<g>
	<rect x="139.352" y="46" fill="#BBBBBB" width="0.995" height="1"/>
</g>
<g>
	<rect x="137.352" y="46" fill="#BBBBBB" width="0.995" height="1"/>
</g>
<g>
	<rect x="135.352" y="46" fill="#BBBBBB" width="0.995" height="1"/>
</g>
<g>
	<rect x="127.352" y="46" fill="#BBBBBB" width="0.995" height="1"/>
</g>
<g>
	<rect x="129.352" y="46" fill="#BBBBBB" width="0.995" height="1"/>
</g>
<g>
	<rect x="131.352" y="46" fill="#BBBBBB" width="0.995" height="1"/>
</g>
<g>
	<rect x="133.352" y="46" fill="#BBBBBB" width="0.995" height="1"/>
</g>
<g>
	<rect x="125.361" y="54" fill="#BBBBBB" width="0.995" height="38"/>
</g>
<g>
	<rect x="125.361" y="44" fill="#BBBBBB" width="0.995" height="1"/>
</g>
<g>
	<rect x="125.361" y="42" fill="#BBBBBB" width="0.995" height="1"/>
</g>
<g>
	<rect x="125.361" y="40" fill="#BBBBBB" width="0.995" height="1"/>
</g>
<g>
	<rect x="125.361" y="50" fill="#BBBBBB" width="0.995" height="1"/>
</g>
<g>
	<rect x="125.361" y="52" fill="#BBBBBB" width="0.995" height="1"/>
</g>
<g>
	<rect x="125.361" y="48" fill="#BBBBBB" width="0.995" height="1"/>
</g>
<g>
	<rect x="125.361" y="46" fill="#BBBBBB" width="0.995" height="1"/>
</g>
<g>
	<rect x="125.361" y="38" fill="#BBBBBB" width="0.995" height="1"/>
</g>
<g>
	<rect x="125.361" y="36" fill="#BBBBBB" width="0.995" height="1"/>
</g>
<g>
	<rect x="125.361" y="34" fill="#BBBBBB" width="0.995" height="1"/>
</g>
<g>
	<rect x="125.361" y="32" fill="#BBBBBB" width="0.995" height="1"/>
</g>
<g>
	<rect x="125.361" y="30" fill="#BBBBBB" width="0.995" height="1"/>
</g>
<g>
	<rect x="125.361" y="28" fill="#BBBBBB" width="0.995" height="1"/>
</g>
<g>
	<rect x="125.361" y="26" fill="#BBBBBB" width="0.995" height="1"/>
</g>
<g>
	<rect x="125.361" y="24" fill="#BBBBBB" width="0.995" height="1"/>
</g>
<g>
	<rect x="125.361" y="22" fill="#BBBBBB" width="0.995" height="1"/>
</g>
<g>
	<rect x="125.361" y="20" fill="#BBBBBB" width="0.995" height="1"/>
</g>
<g>
	<rect x="125.361" y="18" fill="#BBBBBB" width="0.995" height="1"/>
</g>
<g>
	<rect x="125.361" y="16" fill="#BBBBBB" width="0.995" height="1"/>
</g>
<g>
	<rect x="79.404" y="64" fill="#BBBBBB" width="0.995" height="28"/>
</g>
<g>
	<rect x="79.404" y="50" fill="#BBBBBB" width="0.995" height="1"/>
</g>
<g>
	<rect x="79.404" y="48" fill="#BBBBBB" width="0.995" height="1"/>
</g>
<g>
	<rect x="79.404" y="46" fill="#BBBBBB" width="0.995" height="1"/>
</g>
<g>
	<rect x="79.404" y="44" fill="#BBBBBB" width="0.995" height="1"/>
</g>
<g>
	<rect x="79.404" y="42" fill="#BBBBBB" width="0.995" height="1"/>
</g>
<g>
	<rect x="79.404" y="60" fill="#BBBBBB" width="0.995" height="1"/>
</g>
<g>
	<rect x="79.404" y="62" fill="#BBBBBB" width="0.995" height="1"/>
</g>
<g>
	<rect x="79.404" y="58" fill="#BBBBBB" width="0.995" height="1"/>
</g>
<g>
	<rect x="79.404" y="56" fill="#BBBBBB" width="0.995" height="1"/>
</g>
<g>
	<rect x="79.404" y="54" fill="#BBBBBB" width="0.995" height="1"/>
</g>
<g>
	<rect x="79.404" y="52" fill="#BBBBBB" width="0.995" height="1"/>
</g>
<g>
	<rect x="79.404" y="40" fill="#BBBBBB" width="0.995" height="1"/>
</g>
<g>
	<rect x="79.404" y="38" fill="#BBBBBB" width="0.995" height="1"/>
</g>
<g>
	<rect x="79.404" y="36" fill="#BBBBBB" width="0.995" height="1"/>
</g>
<g>
	<rect x="79.404" y="34" fill="#BBBBBB" width="0.995" height="1"/>
</g>
<g>
	<rect x="79.404" y="32" fill="#BBBBBB" width="0.995" height="1"/>
</g>
<g>
	<rect x="79.404" y="30" fill="#BBBBBB" width="0.995" height="1"/>
</g>
<g>
	<rect x="35.424" y="76" fill="#BBBBBB" width="0.995" height="16"/>
</g>
<g>
	<rect x="35.424" y="38" fill="#BBBBBB" width="0.995" height="1"/>
</g>
<g>
	<rect x="35.424" y="36" fill="#BBBBBB" width="0.995" height="1"/>
</g>
<g>
	<rect x="35.424" y="34" fill="#BBBBBB" width="0.995" height="1"/>
</g>
<g>
	<rect x="35.424" y="44" fill="#BBBBBB" width="0.995" height="1"/>
</g>
<g>
	<rect x="35.424" y="42" fill="#BBBBBB" width="0.995" height="1"/>
</g>
<g>
	<rect x="35.424" y="40" fill="#BBBBBB" width="0.995" height="1"/>
</g>
<g>
	<rect x="35.424" y="32" fill="#BBBBBB" width="0.995" height="1"/>
</g>
<g>
	<rect x="35.424" y="30" fill="#BBBBBB" width="0.995" height="1"/>
</g>
<g>
	<rect x="35.424" y="28" fill="#BBBBBB" width="0.995" height="1"/>
</g>
<g>
	<rect x="35.424" y="26" fill="#BBBBBB" width="0.995" height="1"/>
</g>
<g>
	<rect x="35.424" y="24" fill="#BBBBBB" width="0.995" height="1"/>
</g>
<g>
	<rect x="35.424" y="22" fill="#BBBBBB" width="0.995" height="1"/>
</g>
<g>
	<rect x="35.424" y="20" fill="#BBBBBB" width="0.995" height="1"/>
</g>
<g>
	<rect x="35.424" y="18" fill="#BBBBBB" width="0.995" height="1"/>
</g>
<g>
	<rect x="75.414" y="46" fill="#BBBBBB" width="0.995" height="1"/>
</g>
<g>
	<rect x="77.414" y="46" fill="#BBBBBB" width="0.995" height="1"/>
</g>
<g>
	<rect x="73.414" y="46" fill="#BBBBBB" width="0.995" height="1"/>
</g>
<g>
	<rect x="71.414" y="46" fill="#BBBBBB" width="0.995" height="1"/>
</g>
<g>
	<rect x="69.414" y="46" fill="#BBBBBB" width="0.995" height="1"/>
</g>
<g>
	<rect x="67.414" y="46" fill="#BBBBBB" width="0.995" height="1"/>
</g>
<g>
	<rect x="65.414" y="46" fill="#BBBBBB" width="0.995" height="1"/>
</g>
<g>
	<rect x="63.414" y="46" fill="#BBBBBB" width="0.995" height="1"/>
</g>
<g>
	<rect x="61.414" y="46" fill="#BBBBBB" width="0.995" height="1"/>
</g>
<g>
	<rect x="59.414" y="46" fill="#BBBBBB" width="0.995" height="1"/>
</g>
<g>
	<rect x="57.414" y="46" fill="#BBBBBB" width="0.995" height="1"/>
</g>
<g>
	<rect x="55.424" y="46" fill="#BBBBBB" width="0.995" height="1"/>
</g>
<g>
	<rect x="53.424" y="46" fill="#BBBBBB" width="0.995" height="1"/>
</g>
<g>
	<rect x="51.424" y="46" fill="#BBBBBB" width="0.995" height="1"/>
</g>
<g>
	<rect x="109.361" y="46" fill="#BBBBBB" width="0.995" height="1"/>
</g>
<g>
	<rect x="111.361" y="46" fill="#BBBBBB" width="0.995" height="1"/>
</g>
<g>
	<rect x="107.361" y="46" fill="#BBBBBB" width="0.995" height="1"/>
</g>
<g>
	<rect x="105.361" y="46" fill="#BBBBBB" width="0.995" height="1"/>
</g>
<g>
	<rect x="103.361" y="46" fill="#BBBBBB" width="0.995" height="1"/>
</g>
<g>
	<rect x="101.361" y="46" fill="#BBBBBB" width="0.995" height="1"/>
</g>
<g>
	<rect x="99.361" y="46" fill="#BBBBBB" width="0.995" height="1"/>
</g>
<g>
	<rect x="97.361" y="46" fill="#BBBBBB" width="0.995" height="1"/>
</g>
<g>
	<rect x="95.361" y="46" fill="#BBBBBB" width="0.995" height="1"/>
</g>
<g>
	<rect x="93.361" y="46" fill="#BBBBBB" width="0.995" height="1"/>
</g>
<g>
	<rect x="91.361" y="46" fill="#BBBBBB" width="0.995" height="1"/>
</g>
<g>
	<rect x="89.371" y="46" fill="#BBBBBB" width="0.995" height="1"/>
</g>
<g>
	<rect x="87.371" y="46" fill="#BBBBBB" width="0.995" height="1"/>
</g>
<g>
	<rect x="85.371" y="46" fill="#BBBBBB" width="0.995" height="1"/>
</g>
<g>
	<rect x="83.371" y="46" fill="#BBBBBB" width="0.995" height="1"/>
</g>
<g>
	<rect x="81.371" y="46" fill="#BBBBBB" width="0.995" height="1"/>
</g>
<g>
	<rect x="123.361" y="46" fill="#BBBBBB" width="0.995" height="1"/>
</g>
<g>
	<rect x="121.361" y="46" fill="#BBBBBB" width="0.995" height="1"/>
</g>
<g>
	<rect x="119.361" y="46" fill="#BBBBBB" width="0.995" height="1"/>
</g>
<g>
	<rect x="117.371" y="46" fill="#BBBBBB" width="0.995" height="1"/>
</g>
<g>
	<rect x="115.371" y="46" fill="#BBBBBB" width="0.995" height="1"/>
</g>
<g>
	<rect x="113.371" y="46" fill="#BBBBBB" width="0.995" height="1"/>
</g>
<g>
	<rect x="49.424" y="46" fill="#BBBBBB" width="0.995" height="1"/>
</g>
<g>
	<rect x="33.424" y="46" fill="#BBBBBB" width="0.995" height="1"/>
</g>
<g>
	<rect x="31.424" y="46" fill="#BBBBBB" width="0.995" height="1"/>
</g>
<g>
	<rect x="29.424" y="46" fill="#BBBBBB" width="0.995" height="1"/>
</g>
<g>
	<rect x="27.424" y="46" fill="#BBBBBB" width="0.995" height="1"/>
</g>
<g>
	<rect x="25.424" y="46" fill="#BBBBBB" width="0.995" height="1"/>
</g>
<g>
	<rect x="23.424" y="46" fill="#BBBBBB" width="0.995" height="1"/>
</g>
<g>
	<rect x="21.424" y="46" fill="#BBBBBB" width="0.995" height="1"/>
</g>
<g>
	<rect x="19.424" y="46" fill="#BBBBBB" width="0.995" height="1"/>
</g>
<g>
	<rect x="17.424" y="46" fill="#BBBBBB" width="0.995" height="1"/>
</g>
<g>
	<rect x="15.424" y="46" fill="#BBBBBB" width="0.995" height="1"/>
</g>
<g>
	<rect x="13.434" y="46" fill="#BBBBBB" width="0.995" height="1"/>
</g>
<g>
	<rect x="11.434" y="46" fill="#BBBBBB" width="0.995" height="1"/>
</g>
<g>
	<rect x="9.434" y="46" fill="#BBBBBB" width="0.995" height="1"/>
</g>
<g>
	<rect x="7.434" y="46" fill="#BBBBBB" width="0.995" height="1"/>
</g>
<g>
	<rect x="47.424" y="46" fill="#BBBBBB" width="0.995" height="1"/>
</g>
<g>
	<rect x="45.424" y="46" fill="#BBBBBB" width="0.995" height="1"/>
</g>
<g>
	<rect x="43.424" y="46" fill="#BBBBBB" width="0.995" height="1"/>
</g>
<g>
	<rect x="35.424" y="46" fill="#BBBBBB" width="0.995" height="1"/>
</g>
<g>
	<rect x="35.424" y="48" fill="#BBBBBB" width="0.995" height="1"/>
</g>
<g>
	<rect x="35.424" y="50" fill="#BBBBBB" width="0.995" height="1"/>
</g>
<g>
	<rect x="35.424" y="56" fill="#BBBBBB" width="0.995" height="1"/>
</g>
<g>
	<rect x="35.424" y="54" fill="#BBBBBB" width="0.995" height="1"/>
</g>
<g>
	<rect x="35.424" y="52" fill="#BBBBBB" width="0.995" height="1"/>
</g>
<g>
	<rect x="35.424" y="58" fill="#BBBBBB" width="0.995" height="1"/>
</g>
<g>
	<rect x="35.424" y="60" fill="#BBBBBB" width="0.995" height="1"/>
</g>
<g>
	<rect x="35.424" y="62" fill="#BBBBBB" width="0.995" height="1"/>
</g>
<g>
	<rect x="35.424" y="64" fill="#BBBBBB" width="0.995" height="1"/>
</g>
<g>
	<rect x="35.424" y="70" fill="#BBBBBB" width="0.995" height="1"/>
</g>
<g>
	<rect x="35.424" y="68" fill="#BBBBBB" width="0.995" height="1"/>
</g>
<g>
	<rect x="35.424" y="66" fill="#BBBBBB" width="0.995" height="1"/>
</g>
<g>
	<rect x="35.424" y="72" fill="#BBBBBB" width="0.995" height="1"/>
</g>
<g>
	<rect x="35.424" y="74" fill="#BBBBBB" width="0.995" height="1"/>
</g>
<g>
	<rect x="37.424" y="46" fill="#BBBBBB" width="0.995" height="1"/>
</g>
<g>
	<rect x="39.424" y="46" fill="#BBBBBB" width="0.995" height="1"/>
</g>
<g>
	<rect x="41.424" y="46" fill="#BBBBBB" width="0.995" height="1"/>
</g>
<g>
	<rect x="849.004" y="46" fill="#BBBBBB" width="0.995" height="46"/>
</g>
<g>
	<rect x="849.004" y="44" fill="#BBBBBB" width="0.995" height="1"/>
</g>
<g>
	<rect x="849.004" y="42" fill="#BBBBBB" width="0.995" height="1"/>
</g>
<g>
	<rect x="849.004" y="40" fill="#BBBBBB" width="0.995" height="1"/>
</g>
<g>
	<rect x="849.004" y="38" fill="#BBBBBB" width="0.995" height="1"/>
</g>
<g>
	<rect x="849.004" y="36" fill="#BBBBBB" width="0.995" height="1"/>
</g>
<g>
	<rect x="849.004" y="34" fill="#BBBBBB" width="0.995" height="1"/>
</g>
<g>
	<rect x="849.004" y="32" fill="#BBBBBB" width="0.995" height="1"/>
</g>
<g>
	<rect x="849.004" y="30" fill="#BBBBBB" width="0.995" height="1"/>
</g>
<g>
	<rect x="849.004" y="28" fill="#BBBBBB" width="0.995" height="1"/>
</g>
<g>
	<rect x="849.004" y="26" fill="#BBBBBB" width="0.995" height="1"/>
</g>
<g>
	<rect x="849.004" y="24" fill="#BBBBBB" width="0.995" height="1"/>
</g>
<g>
	<rect x="849.004" y="22" fill="#BBBBBB" width="0.995" height="1"/>
</g>
<g>
	<rect x="849.004" y="20" fill="#BBBBBB" width="0.995" height="1"/>
</g>
<g>
	<rect x="849.004" y="18" fill="#BBBBBB" width="0.995" height="1"/>
</g>
<g>
	<rect x="849.004" y="16" fill="#BBBBBB" width="0.995" height="1"/>
</g>
<g>
	<rect x="849.004" y="14" fill="#BBBBBB" width="0.995" height="1"/>
</g>
<g>
	<rect x="849.004" y="12" fill="#BBBBBB" width="0.995" height="1"/>
</g>
<g>
	<rect x="849.004" y="10" fill="#BBBBBB" width="0.995" height="1"/>
</g>
<g>
	<rect x="849.004" y="8" fill="#BBBBBB" width="0.995" height="1"/>
</g>
<g>
	<rect x="849.004" y="6" fill="#BBBBBB" width="0.995" height="1"/>
</g>
<g>
	<rect x="804.993" y="36" fill="#BBBBBB" width="0.995" height="56"/>
</g>
<g>
	<rect x="804.993" y="34" fill="#BBBBBB" width="0.995" height="1"/>
</g>
<g>
	<rect x="804.993" y="32" fill="#BBBBBB" width="0.995" height="1"/>
</g>
<g>
	<rect x="804.993" y="30" fill="#BBBBBB" width="0.995" height="1"/>
</g>
<g>
	<rect x="804.993" y="28" fill="#BBBBBB" width="0.995" height="1"/>
</g>
<g>
	<rect x="804.993" y="26" fill="#BBBBBB" width="0.995" height="1"/>
</g>
<g>
	<rect x="804.993" y="24" fill="#BBBBBB" width="0.995" height="1"/>
</g>
<g>
	<rect x="804.993" y="22" fill="#BBBBBB" width="0.995" height="1"/>
</g>
<g>
	<rect x="804.993" y="20" fill="#BBBBBB" width="0.995" height="1"/>
</g>
<g>
	<rect x="804.993" y="18" fill="#BBBBBB" width="0.995" height="1"/>
</g>
<g>
	<rect x="804.993" y="16" fill="#BBBBBB" width="0.995" height="1"/>
</g>
<g>
	<rect x="758.988" y="42" fill="#BBBBBB" width="0.995" height="50"/>
</g>
<g>
	<rect x="758.988" y="34" fill="#BBBBBB" width="0.995" height="1"/>
</g>
<g>
	<rect x="758.988" y="32" fill="#BBBBBB" width="0.995" height="1"/>
</g>
<g>
	<rect x="758.988" y="30" fill="#BBBBBB" width="0.995" height="1"/>
</g>
<g>
	<rect x="758.988" y="28" fill="#BBBBBB" width="0.995" height="1"/>
</g>
<g>
	<rect x="758.988" y="40" fill="#BBBBBB" width="0.995" height="1"/>
</g>
<g>
	<rect x="758.988" y="38" fill="#BBBBBB" width="0.995" height="1"/>
</g>
<g>
	<rect x="758.988" y="36" fill="#BBBBBB" width="0.995" height="1"/>
</g>
<g>
	<rect x="758.988" y="26" fill="#BBBBBB" width="0.995" height="1"/>
</g>
<g>
	<rect x="758.988" y="24" fill="#BBBBBB" width="0.995" height="1"/>
</g>
<g>
	<rect x="758.988" y="22" fill="#BBBBBB" width="0.995" height="1"/>
</g>
<g>
	<rect x="758.988" y="20" fill="#BBBBBB" width="0.995" height="1"/>
</g>
<g>
	<rect x="758.988" y="18" fill="#BBBBBB" width="0.995" height="1"/>
</g>
<g>
	<rect x="758.988" y="16" fill="#BBBBBB" width="0.995" height="1"/>
</g>
<g>
	<rect x="758.988" y="14" fill="#BBBBBB" width="0.995" height="1"/>
</g>
<g>
	<rect x="758.988" y="12" fill="#BBBBBB" width="0.995" height="1"/>
</g>
<g>
	<rect x="758.988" y="10" fill="#BBBBBB" width="0.995" height="1"/>
</g>
<g>
	<rect x="758.988" y="8" fill="#BBBBBB" width="0.995" height="1"/>
</g>
<g>
	<rect x="758.988" y="6" fill="#BBBBBB" width="0.995" height="1"/>
</g>
<g>
	<rect x="758.988" y="4" fill="#BBBBBB" width="0.995" height="1"/>
</g>
<g>
	<rect x="758.988" y="2" fill="#BBBBBB" width="0.995" height="1"/>
</g>
<g>
	<rect x="713.02" y="32" fill="#BBBBBB" width="0.995" height="60"/>
</g>
<g>
	<rect x="713.02" y="30" fill="#BBBBBB" width="0.995" height="1"/>
</g>
<g>
	<rect x="713.02" y="28" fill="#BBBBBB" width="0.995" height="1"/>
</g>
<g>
	<rect x="713.02" y="26" fill="#BBBBBB" width="0.995" height="1"/>
</g>
<g>
	<rect x="713.02" y="24" fill="#BBBBBB" width="0.995" height="1"/>
</g>
<g>
	<rect x="713.02" y="22" fill="#BBBBBB" width="0.995" height="1"/>
</g>
<g>
	<rect x="713.02" y="20" fill="#BBBBBB" width="0.995" height="1"/>
</g>
<g>
	<rect x="713.02" y="18" fill="#BBBBBB" width="0.995" height="1"/>
</g>
<g>
	<rect x="713.02" y="16" fill="#BBBBBB" width="0.995" height="1"/>
</g>
<g>
	<rect x="713.02" y="14" fill="#BBBBBB" width="0.995" height="1"/>
</g>
<g>
	<rect x="713.02" y="12" fill="#BBBBBB" width="0.995" height="1"/>
</g>
<g>
	<rect x="713.02" y="10" fill="#BBBBBB" width="0.995" height="1"/>
</g>
<g>
	<rect x="713.02" y="8" fill="#BBBBBB" width="0.995" height="1"/>
</g>
<g>
	<rect x="713.02" y="6" fill="#BBBBBB" width="0.995" height="1"/>
</g>
<g>
</g>
<g>
</g>
<g>
</g>
<g>
</g>
<g>
</g>
<g>
</g>
</svg>
